<svg width="26" height="27" viewBox="0 0 26 27" fill="none" xmlns="http://www.w3.org/2000/svg">
<path d="M12.9722 8C14.3867 8 15.7432 8.5619 16.7434 9.5621C17.7436 10.5623 18.3055 11.9188 18.3055 13.3333C18.3055 14.7478 17.7436 16.1044 16.7434 17.1046C15.7432 18.1048 14.3867 18.6667 12.9722 18.6667C11.5577 18.6667 10.2011 18.1048 9.20095 17.1046C8.20076 16.1044 7.63885 14.7478 7.63885 13.3333C7.63885 11.9188 8.20076 10.5623 9.20095 9.5621C10.2011 8.5619 11.5577 8 12.9722 8ZM12.9722 10.6667C12.2649 10.6667 11.5867 10.9476 11.0866 11.4477C10.5865 11.9478 10.3055 12.6261 10.3055 13.3333C10.3055 14.0406 10.5865 14.7189 11.0866 15.219C11.5867 15.719 12.2649 16 12.9722 16C13.6794 16 14.3577 15.719 14.8578 15.219C15.3579 14.7189 15.6389 14.0406 15.6389 13.3333C15.6389 12.6261 15.3579 11.9478 14.8578 11.4477C14.3577 10.9476 13.6794 10.6667 12.9722 10.6667ZM10.3055 26.6667C9.97219 26.6667 9.69219 26.4267 9.63885 26.1067L9.14552 22.5733C8.30552 22.24 7.58552 21.7867 6.89219 21.2533L3.57219 22.6C3.27885 22.7067 2.91885 22.6 2.75885 22.3067L0.0921875 17.6933C0.0105815 17.556 -0.0181875 17.3935 0.0112602 17.2365C0.040708 17.0794 0.126356 16.9385 0.252188 16.84L3.06552 14.6267L2.97219 13.3333L3.06552 12L0.252188 9.82667C0.126356 9.72818 0.040708 9.58723 0.0112602 9.43017C-0.0181875 9.27312 0.0105815 9.11071 0.0921875 8.97333L2.75885 4.36C2.91885 4.06667 3.27885 3.94667 3.57219 4.06667L6.89219 5.4C7.58552 4.88 8.30552 4.42667 9.14552 4.09333L9.63885 0.56C9.69219 0.24 9.97219 0 10.3055 0H15.6389C15.9722 0 16.2522 0.24 16.3055 0.56L16.7989 4.09333C17.6389 4.42667 18.3589 4.88 19.0522 5.4L22.3722 4.06667C22.6655 3.94667 23.0255 4.06667 23.1855 4.36L25.8522 8.97333C26.0255 9.26667 25.9455 9.62667 25.6922 9.82667L22.8789 12L22.9722 13.3333L22.8789 14.6667L25.6922 16.84C25.9455 17.04 26.0255 17.4 25.8522 17.6933L23.1855 22.3067C23.0255 22.6 22.6655 22.72 22.3722 22.6L19.0522 21.2667C18.3589 21.7867 17.6389 22.24 16.7989 22.5733L16.3055 26.1067C16.2522 26.4267 15.9722 26.6667 15.6389 26.6667H10.3055ZM11.9722 2.66667L11.4789 6.14667C9.87885 6.48 8.46552 7.33333 7.43885 8.52L4.22552 7.13333L3.22552 8.86667L6.03885 10.9333C5.50552 12.4889 5.50552 14.1778 6.03885 15.7333L3.21219 17.8133L4.21219 19.5467L7.45219 18.16C8.47885 19.3333 9.87885 20.1867 11.4655 20.5067L11.9589 24H13.9855L14.4789 20.52C16.0655 20.1867 17.4655 19.3333 18.4922 18.16L21.7322 19.5467L22.7322 17.8133L19.9055 15.7467C20.4389 14.1867 20.4389 12.4933 19.9055 10.9333L22.7189 8.86667L21.7189 7.13333L18.5055 8.52C17.4578 7.3071 16.0366 6.4769 14.4655 6.16L13.9722 2.66667H11.9722Z" fill="#737791"/>
</svg>
