<svg width="27" height="27" viewBox="0 0 27 27" fill="none" xmlns="http://www.w3.org/2000/svg">
<path fill-rule="evenodd" clip-rule="evenodd" d="M19.1081 19.5344L23.6705 14.2111C23.8883 13.9625 23.9998 13.6488 24 13.3334C24.0001 13.1175 23.9481 12.901 23.8424 12.704C23.7954 12.6162 23.7381 12.5328 23.6705 12.4556L19.1081 7.13228C18.6289 6.57315 17.7872 6.50836 17.228 6.98756C16.6689 7.46675 16.6041 8.30848 17.0833 8.86761L19.7679 11.9999L9.44168 11.9999C8.7053 11.9999 8.10835 12.5969 8.10835 13.3333C8.10835 14.0697 8.7053 14.6666 9.44168 14.6666L19.768 14.6666L17.0833 17.7991C16.6041 18.3582 16.6689 19.2 17.228 19.6792C17.7872 20.1584 18.6289 20.0936 19.1081 19.5344ZM10.6666 5.33326C11.403 5.33326 12 5.93021 12 6.66659L12 8.66659C12 9.40297 12.5969 9.99992 13.3333 9.99992C14.0697 9.99992 14.6666 9.40297 14.6666 8.66659L14.6666 6.66659C14.6666 4.45745 12.8758 2.66659 10.6666 2.66659L6.66665 2.66659C4.45751 2.66659 2.66665 4.45745 2.66665 6.66659L2.66665 19.9999C2.66665 22.2091 4.45751 23.9999 6.66665 23.9999L10.6666 23.9999C12.8758 23.9999 14.6666 22.2091 14.6666 19.9999L14.6666 17.9999C14.6666 17.2635 14.0697 16.6666 13.3333 16.6666C12.5969 16.6666 12 17.2635 12 17.9999L12 19.9999C12 20.7363 11.403 21.3333 10.6666 21.3333L6.66665 21.3333C5.93027 21.3333 5.33331 20.7363 5.33331 19.9999L5.33331 6.66659C5.33331 5.93021 5.93027 5.33325 6.66665 5.33325L10.6666 5.33326Z" fill="#737791"/>
</svg>
