<svg width="24" height="28" viewBox="0 0 24 28" fill="none" xmlns="http://www.w3.org/2000/svg">
<path d="M21.3333 6.66667H18.6667C18.6667 2.93333 15.7333 0 12 0C8.26667 0 5.33333 2.93333 5.33333 6.66667H2.66667C1.2 6.66667 0 7.86667 0 9.33333V25.3333C0 26.8 1.2 28 2.66667 28H21.3333C22.8 28 24 26.8 24 25.3333V9.33333C24 7.86667 22.8 6.66667 21.3333 6.66667ZM12 2.66667C14.2667 2.66667 16 4.4 16 6.66667H8C8 4.4 9.73333 2.66667 12 2.66667ZM21.3333 25.3333H2.66667V9.33333H21.3333V25.3333ZM12 14.6667C9.73333 14.6667 8 12.9333 8 10.6667H5.33333C5.33333 14.4 8.26667 17.3333 12 17.3333C15.7333 17.3333 18.6667 14.4 18.6667 10.6667H16C16 12.9333 14.2667 14.6667 12 14.6667Z" fill="#737791"/>
</svg>
